<?xml version="1.0" standalone="no"?>
<!DOCTYPE svg PUBLIC "-//W3C//DTD SVG 20010904//EN"
 "http://www.w3.org/TR/2001/REC-SVG-20010904/DTD/svg10.dtd">
<svg version="1.0" xmlns="http://www.w3.org/2000/svg"
 width="100.000000pt" height="100.000000pt" viewBox="0 0 100.000000 100.000000"
 preserveAspectRatio="xMidYMid meet">

<g transform="translate(0.000000,100.000000) scale(0.100000,-0.100000)"
fill="#000000" stroke="none">
<path d="M223 861 c-3 -11 -13 -21 -24 -24 -10 -3 -19 -10 -19 -17 0 -7 9 -14
19 -17 11 -3 21 -13 24 -24 3 -10 10 -19 17 -19 7 0 14 9 17 19 3 11 13 21 24
24 10 3 19 10 19 17 0 7 -9 14 -19 17 -11 3 -21 13 -24 24 -7 25 -27 25 -34 0z"/>
<path d="M641 854 c-71 -36 -140 -139 -92 -139 7 0 25 17 39 38 15 21 41 47
59 58 l31 20 16 -53 c24 -83 115 -158 191 -158 23 0 25 -3 19 -22 -3 -13 -16
-36 -27 -51 -21 -30 -12 -55 16 -44 20 7 67 105 67 138 0 26 -2 27 -39 22
-104 -14 -200 72 -201 180 0 45 -8 46 -79 11z"/>
<path d="M412 669 c-69 -20 -132 -111 -132 -191 0 -21 -5 -28 -19 -28 -46 0
-101 -75 -101 -138 0 -39 38 -93 80 -114 30 -16 66 -18 275 -18 230 0 243 1
285 23 132 66 132 247 0 315 -33 17 -56 22 -87 19 -38 -4 -43 -2 -53 23 -16
38 -67 86 -112 104 -41 18 -86 19 -136 5z m132 -43 c40 -17 83 -71 92 -115 5
-24 11 -31 23 -25 42 17 97 15 129 -5 94 -60 94 -184 0 -241 -31 -18 -51 -20
-271 -20 -259 0 -282 4 -305 55 -32 70 15 145 92 145 23 0 25 3 20 30 -25 124
101 226 220 176z"/>
<path d="M55 620 c-18 -20 -18 -21 3 -43 l22 -21 22 21 c21 22 21 23 3 43 -10
11 -21 20 -25 20 -4 0 -15 -9 -25 -20z"/>
</g>
</svg>
