<svg width="25" height="23" viewBox="0 0 25 23" fill="none" xmlns="http://www.w3.org/2000/svg">
<path d="M15.2127 9.78733C14.9132 8.17274 13.5069 6.94444 11.8056 6.94444C11.2717 6.94444 10.7682 7.07465 10.3168 7.29167C9.56163 6.24566 8.33767 5.55556 6.94444 5.55556C4.6441 5.55556 2.77778 7.42187 2.77778 9.72222C2.77778 9.74392 2.78646 9.76997 2.78646 9.79167C1.19792 10.1085 0 11.5104 0 13.1944C0 15.1128 1.55382 16.6667 3.47222 16.6667H14.5833C16.5017 16.6667 18.0556 15.1128 18.0556 13.1944C18.0556 11.4931 16.8316 10.0825 15.2127 9.78733ZM24.6484 9.71354C21.5929 10.2908 18.7891 7.96441 18.7891 4.90451C18.7891 3.14236 19.7396 1.5191 21.2847 0.646701C21.5234 0.512153 21.4627 0.15191 21.1936 0.104167C20.816 0.0347222 20.4297 0 20.0434 0C16.6623 0 13.9193 2.65625 13.776 5.98524C14.9349 6.50174 15.8681 7.45226 16.3325 8.66319C17.9427 9.28385 19.1102 10.7205 19.3793 12.4306C19.6007 12.4523 19.8134 12.4957 20.0391 12.4957C21.9792 12.4957 23.7543 11.6189 24.9262 10.1823C25.1085 9.97396 24.9175 9.66146 24.6484 9.71354ZM15.8203 18.1467C15.4905 17.9601 15.0651 18.0686 14.8741 18.4071L13.2856 21.1849C13.0946 21.5191 13.2118 21.9401 13.546 22.1311C13.6545 22.1918 13.7717 22.2222 13.8889 22.2222C14.1276 22.2222 14.362 22.0964 14.4922 21.8707L16.0807 19.0929C16.2674 18.7587 16.1545 18.3377 15.8203 18.1467ZM11.6536 18.1467C11.3238 17.9601 10.8984 18.0686 10.7075 18.4071L9.11892 21.1849C8.92795 21.5191 9.04514 21.9401 9.37934 22.1311C9.48785 22.1918 9.60503 22.2222 9.72222 22.2222C9.96094 22.2222 10.1953 22.0964 10.3255 21.8707L11.9141 19.0929C12.1007 18.7587 11.9878 18.3377 11.6536 18.1467ZM7.48698 18.1467C7.15712 17.9601 6.73177 18.0686 6.5408 18.4071L4.95226 21.1849C4.76128 21.5191 4.87847 21.9401 5.21267 22.1311C5.32118 22.1918 5.43837 22.2222 5.55556 22.2222C5.79427 22.2222 6.02865 22.0964 6.15885 21.8707L7.7474 19.0929C7.93403 18.7587 7.82118 18.3377 7.48698 18.1467ZM3.32031 18.1467C2.99045 17.9601 2.5651 18.0686 2.37413 18.4071L0.78559 21.1849C0.594618 21.5191 0.711806 21.9401 1.04601 22.1311C1.15451 22.1918 1.2717 22.2222 1.38889 22.2222C1.6276 22.2222 1.86198 22.0964 1.99219 21.8707L3.58073 19.0929C3.76736 18.7587 3.65451 18.3377 3.32031 18.1467Z" fill="white"/>
</svg>
